<svg xmlns="http://www.w3.org/2000/svg" aria-hidden="true" style="width:0;height:0;position:absolute;overflow:hidden"><defs><symbol id="icon-arcticons_map" viewBox="0 0 32 32"><path fill="none" stroke="#fcfcfb" style="stroke:var(--color1,#fcfcfb)" stroke-linecap="round" stroke-linejoin="round" stroke-width="1.333" d="M16 3a9.88 9.88 0 0 0-9.88 9.88v.72c.4 5.413 4.893 9.767 9.88 15.4 5.207-5.88 9.88-10.333 9.88-16.12A9.88 9.88 0 0 0 16 3zm0 5.133a4.763 4.763 0 0 1 4.392 2.936 4.749 4.749 0 0 1-1.034 5.181 4.758 4.758 0 0 1-7.314-.728A4.753 4.753 0 0 1 16 8.132z"/></symbol><symbol id="icon-arcticons_phone" viewBox="0 0 32 32"><path fill="none" stroke="#fcfcfb" style="stroke:var(--color1,#fcfcfb)" stroke-linecap="round" stroke-linejoin="round" stroke-width="1.333" d="M27.147 20.187a41.182 41.182 0 0 1-4.2-.74 2.073 2.073 0 0 0-2 .387c-.353.36-1.373 1.367-2.433 2.407a19.126 19.126 0 0 1-8.733-8.74c1.033-1.06 2-2.073 2.393-2.427a2.079 2.079 0 0 0 .387-2 41.364 41.364 0 0 1-.74-4.207 1.321 1.321 0 0 0-.996-1.155 1.331 1.331 0 0 0-.537-.025h-5.68a1.001 1.001 0 0 0-.907.913c-.367 5.127 2.493 10.613 3.073 11.667v.04l.08.153a23.624 23.624 0 0 0 8.667 8.667v0l.293.167c1.333.707 6.633 3.373 11.587 3.007a.999.999 0 0 0 .927-.907v-5.673a1.317 1.317 0 0 0-.667-1.371 1.346 1.346 0 0 0-.513-.162z"/></symbol><symbol id="icon-arcticons_spike-email" viewBox="0 0 32 32"><path fill="none" stroke="#fcfcfb" style="stroke:var(--color1,#fcfcfb)" stroke-linecap="round" stroke-linejoin="round" stroke-width="1.333" d="M25.148 27.035c.356-.296.698-.608 1.025-.937M23.879 16a7.874 7.874 0 0 0-7.21-7.837 7.871 7.871 0 1 0 7.212 7.838h-.001z"/><path fill="none" stroke="#fcfcfb" style="stroke:var(--color1,#fcfcfb)" stroke-linecap="round" stroke-linejoin="round" stroke-width="1.333" d="M30.333 16a14.323 14.323 0 0 0-5.702-11.467A14.33 14.33 0 0 0 12.039 2.2 14.33 14.33 0 0 0 1.735 17.385a14.32 14.32 0 0 0 2.132 6.224l-.889 5.413 5.413-.889a14.3 14.3 0 0 0 13.187 1.075"/><path fill="none" stroke="#fcfcfb" style="stroke:var(--color1,#fcfcfb)" stroke-linecap="round" stroke-linejoin="round" stroke-width="1.333" d="M23.43 18.624c-.963 2.348.605 3.611 1.953 3.918 1.645.373 4.95-1.346 4.95-6.542"/></symbol><symbol id="icon-ep_arrow-right-1" viewBox="0 0 30 32"><path d="M20.014 4.666c.163.179.255.418.255.668s-.092.489-.255.668L10.877 16l9.137 9.996c.163.179.255.418.255.668s-.092.489-.255.668c-.079.087-.174.156-.279.204a.797.797 0 0 1-.664 0 .845.845 0 0 1-.279-.204L9.076 16.698c-.171-.187-.266-.437-.266-.698s.095-.511.266-.698l9.716-10.634c.079-.087.174-.156.279-.204a.797.797 0 0 1 .664 0c.105.048.2.116.279.204v-.002z"/></symbol><symbol id="icon-ep_arrow-right" viewBox="0 0 30 32"><path d="M9.986 4.666c-.164.179-.255.418-.255.668s.092.489.255.668L19.123 16l-9.137 9.996c-.164.179-.255.418-.255.668s.092.489.255.668c.079.087.175.156.28.204a.797.797 0 0 0 .664 0 .859.859 0 0 0 .28-.204l9.716-10.634c.171-.187.266-.437.266-.698s-.096-.511-.266-.698L11.21 4.668c-.079-.087-.175-.156-.28-.204a.797.797 0 0 0-.664 0 .859.859 0 0 0-.28.204v-.002z"/></symbol><symbol id="icon-__svg" viewBox="0 0 26 32"><path style="fill:var(--color2,#000)" d="M.61 31.419c3.382 1.044 6.962.07 10.468-.046 1.604-.052 3.21.076 4.811.168 2.531.145 5.068.203 7.602.258.771.017 1.568.029 2.28-.308.17-.081.36-.241.314-.444-.046-.212-.295-.244-.488-.232-3.408.192-6.818.035-10.223-.136-3.421-.171-6.849-.354-10.272-.212-.92.038-1.85.18-2.768.171-.65-.003-1.342.093-1.722.78z" opacity=".7"/><path style="fill:var(--color2,#000)" d="M.609 31.419c3.382 1.044 6.962.07 10.468-.046 1.604-.052 3.21.076 4.811.168 2.531.145 5.068.203 7.602.258.771.017 1.568.029 2.28-.308.17-.081.36-.241.314-.444-.046-.212-.295-.244-.488-.232-3.408.192-6.818.035-10.223-.136-3.421-.171-6.849-.354-10.272-.212-.92.038-1.85.18-2.768.171-.65-.003-1.342.093-1.722.78z" opacity=".7"/><path fill="#00719a" style="fill:var(--color3,#00719a)" d="M9.179 10.862a1.29 1.29 0 0 1-.17.368c-.087.116-.211.189-.332.258l-2.675 1.555c-.111-.218-.221-.438-.334-.656l2.079-1.781c.085-.072.17-.145.239-.235a1.74 1.74 0 0 0 .229-.484c.347-.972.691-1.946 1.038-2.918.121-.342.257-.705.527-.914.252-.194.738-.194.858.183.123.386-.218.998-.337 1.343-.375 1.091-.75 2.187-1.123 3.281z" opacity=".7"/><path fill="#404040" style="fill:var(--color4,#404040)" d="M6.335 13.282c-.447-.554-1.799-.638-2.285-.087-.676.766.578 1.265 1.049 1.404.396.119.547-.612.165-.673-.216-.035-.437-.067-.648-.133-.17-.052-.324-.154-.093-.319.098-.07.329-.052.442-.061.439-.029.907.113 1.334.02.062-.012.074-.104.036-.151z" opacity=".7"/><path fill="#333" style="fill:var(--color5,#333)" d="M8.42 30.253a3.892 3.892 0 0 0 1.156-2.361c.26-2.17-.678-4.426-2.429-5.508-1.347-.832-3.254-1.247-4.711-.392-2.645 1.552-3.125 6.579-.807 8.592 1.768 1.529 5.035 1.383 6.79-.33z" opacity=".7"/><path fill="#404040" style="fill:var(--color4,#404040)" d="M8.104 29.775a3.533 3.533 0 0 0 1.067-2.132c.247-1.955-.604-3.983-2.2-4.948-1.228-.743-2.971-1.105-4.307-.331-2.426 1.41-2.886 5.941-.771 7.739 1.611 1.372 4.6 1.227 6.212-.328z" opacity=".7"/><path fill="#ddd2c7" style="fill:var(--color6,#ddd2c7)" d="M11.889 19.306c-.429.017-.83.162-1.208.389-.062.038-.129.081-.159.154a.502.502 0 0 0-.023.232l.108 1.795c.028.479.059.96.139 1.436.075.45.267.83.357 1.265.211 1.018.501 2.013.792 3.002l.421-.052s-.203-1.268-.218-1.349c-.051-.299-.159-.569-.206-.876a24.341 24.341 0 0 1-.134-1.047c-.039-.348-.08-.696-.054-1.044.015-.215.057-.429.098-.638l.609-3.162a1.064 1.064 0 0 0-.522-.105z" opacity=".7"/><path fill="#737373" style="fill:var(--color7,#737373)" d="M11.403 12.388a.69.69 0 0 0-.144.299c-.254 2.245-.596 4.751-.848 6.996a7.865 7.865 0 0 0 2.192.377c1.298-2.703 2.621-5.491 2.976-8.557l-4.091 1.044c-.087.02-.026-.238-.085-.16z" opacity=".7"/><path fill="#333" style="fill:var(--color5,#333)" d="M22.648 25.322c-.175-.702-.532-1.323-1.115-1.755-1.298-.966-3.053-.992-4.333.049-.987.801-1.894 2.199-1.84 3.675.098 2.68 3.141 4.818 5.207 3.64 1.573-.899 2.585-3.594 2.082-5.61z" opacity=".7"/><path fill="#404040" style="fill:var(--color4,#404040)" d="M22.305 25.435c-.154-.635-.473-1.195-.992-1.584-1.156-.87-2.724-.89-3.87.052-.882.725-1.694 1.99-1.65 3.321.082 2.422 2.796 4.345 4.641 3.278 1.408-.812 2.316-3.249 1.871-5.067z" opacity=".7"/><path fill="#ebebeb" style="fill:var(--color8,#ebebeb)" d="M19.376 26.175a.744.744 0 0 1-.062-.02c-.673-.267-1.403-.105-2.102-.07-.843.044-1.709-.415-2.549-.426-.712-.009-1.103-.258-1.177-.992-.033-.325-.17-.638-.211-.969-.018-.142-.208-.455-.319-.699a.639.639 0 0 0-.352-.345c-.624-.226-1.031-.273-1.691-.644-.581-.325-1.136-.702-1.722-1.018-.583-.316-1.252-.629-1.313-1.505a1.551 1.551 0 0 1 .054-.522c.193-.693.709-1.137 1.259-1.439 1.241-.679 2.668-.719 4.043-.818.853-.061 1.791-.119 2.596-.47.285-.125.84-.76.352-.998-.242-.116-.92.148-1.182.194-.409.073-.815.151-1.223.226-1.665.313-3.333.632-5.017.792-.995.093-2.084.174-2.809.948-.786.838-.869 2.268-.488 3.411.003.009.008.017.01.026.033.235.118.453.234.58l.067.07a1.593 1.593 0 0 0 .591.577c.393.354.807.682 1.221 1.004l4.21 3.284c.342.267.696.54 1.103.641.447.113.912.006 1.365-.075 1.406-.255 2.835-.276 4.261-.279.303.113.609.226.912.342-.113-.238.064-.577-.059-.806z" opacity=".7"/><path fill="#ebebeb" style="fill:var(--color8,#ebebeb)" d="M5.494 14.227c-.031-.215-.586-.125-.614.084-.123.972-.069 3.153-.08 4.116-.013 1.001-.026 2.001-.031 3.005-.013 1.909-.085 3.837-.887 5.79-.147.354.838.36.979.009.779-1.961.825-3.893.802-5.804-.013-.995-.039-1.99-.062-2.988-.026-.998.033-3.228-.108-4.212z" opacity=".7"/><path fill="#3d322b" style="fill:var(--color9,#3d322b)" d="M10.471 27.999c-.046.093-.023.203.141.316.457.311 1.064.29 1.506-.049.075-.058.146-.125.229-.168.154-.084.36-.099.44-.273.085-.183-.026-.403-.134-.568-.095-.145-.144-.281-.319-.212-.321.131-.643.258-.946.435-.195.113-.388.247-.599.305-.131.035-.267.113-.319.215z" opacity=".7"/><path fill="#4d4d4d" style="fill:var(--color10,#4d4d4d)" d="M13.46 26.079a.564.564 0 0 0-.203-.302c-.357-.258-.894-.258-1.146.194-.27.485-.141 1.143.296 1.41.182.113.434.215.642.159.236-.061.393-.249.519-.484.188-.351.093-.705-.108-.977zM13.215 23.596c-.257.27-.501.566-.689.902-.077.136.1.296.193.168a5.51 5.51 0 0 1 .707-.827c.154-.139-.059-.4-.211-.244z" opacity=".7"/><path fill="#4d4d4d" style="fill:var(--color10,#4d4d4d)" d="M12.534 24.527c.039.682.149 1.36.252 2.03.031.209.316.119.283-.087-.111-.656-.188-1.325-.306-1.978-.026-.145-.236-.116-.229.035zM12.392 27.129a4.726 4.726 0 0 0-.111.705c-.021.194.01.47-.044.676-.236-.02-.465-.029-.699-.099-.265-.078-.378.403-.113.479.316.09.655.151.977.061.077-.02.139-.116.136-.212-.008-.223.033-.458.041-.685.01-.284.049-.56.085-.838.023-.203-.218-.293-.272-.087z" opacity=".7"/><path fill="#ebebeb" style="fill:var(--color8,#ebebeb)" d="M3.358 26.659c.008.29.069.586.224.821.131.2.326.339.535.421.355.139.758.105 1.09-.093s.586-.551.689-.957a.918.918 0 0 0 .026-.383c-.113-.659-.889-1.273-1.467-1.27-.673 0-1.113.772-1.095 1.462zM17.783 27.117c.008.29.069.586.224.821.131.2.326.339.535.42.355.139.758.105 1.09-.093s.586-.551.689-.957a.918.918 0 0 0 .026-.383c-.113-.658-.889-1.273-1.468-1.27-.673 0-1.113.772-1.095 1.462z" opacity=".7"/><path fill="#eaddd0" style="fill:var(--color11,#eaddd0)" d="M11.715 23.976c.298-.133.553-.403.694-.74-.815-.983-1.635-2.123-2.105-3.394-.051-.136-.095-.29-.059-.432.036-.139.139-.241.239-.328.152-.133.923-.597.899-.777-.021-.159-.475-.45-.591-.551-.244-.215-.411-.322-.709-.418-.036-.012-.072-.023-.108-.014a.245.245 0 0 0-.082.049c-.326.278-.581.658-.766 1.079a2.025 2.025 0 0 0-.177.621c-.069.714.468 1.23.822 1.714.463.632.892 1.297 1.321 1.961.252.383.501.774.622 1.23z" opacity=".7"/><path fill="#6b6b6b" style="fill:var(--color12,#6b6b6b)" d="M15.313 11.622c.275-.087.56.081.655.394.429 1.413.136 3.127-.771 4.22-.491.592-1.121.995-1.74 1.389l-2.007 1.279a6.776 6.776 0 0 0-1.293-1.491.469.469 0 0 1-.157-.191c-.054-.154.033-.322.118-.455.419-.658.892-1.276 1.228-1.996.339-.719.537-1.572.357-2.358a20.247 20.247 0 0 0 3.608-.792z" opacity=".7"/><path fill="#3d322b" style="fill:var(--color9,#3d322b)" d="M11.054 24.899c-.008.107.054.194.244.209.527.041 1.069-.293 1.342-.827.046-.09.087-.189.144-.27.108-.154.288-.276.298-.473.01-.209-.172-.348-.332-.441-.139-.081-.234-.177-.365-.026a8.69 8.69 0 0 0-.694.882c-.136.203-.26.423-.429.586-.105.101-.2.244-.208.36z" opacity=".7"/><path fill="#404040" style="fill:var(--color4,#404040)" d="M6.353 15.19c-.537.029-1.085.07-1.624.046a7.663 7.663 0 0 1-.37-.026c-.355.023-.704-.348-.265-.69.167-.2.753-.064.951-.012.329.087.47-.484.139-.571-.668-.177-2.344-.029-1.853 1.212.452 1.149 2.3.624 3.053.287.105-.049.103-.252-.031-.247z" opacity=".7"/><path fill="#066984" style="fill:var(--color13,#066984)" d="M8.096 7.126c.514.537.635.824.966 1.532.234.502.416 1.036.658 1.532.342.705.797 1.323 1.249 1.938.149.2.301.406.501.531.141.087.301.131.46.16 1.473.267 2.958-.31 4.313.4.393-2.144-1.239-3.974-2.344-5.546-.18-.255-.329-.508-.542-.728a11.298 11.298 0 0 0-2.174-1.76c-.681-.421-1.411-.595-2.059.032-.488.47-.871 1.201-1.028 1.912z" opacity=".7"/><path fill="#eaddd0" style="fill:var(--color11,#eaddd0)" d="M6.351 2.561c-.195.273-.167.67-.11 1.012.054.342.126.685.285.978.111.203.26.371.411.534.193.209.414.392.594.612.162.194.288.354.542.377a.445.445 0 0 0 .185-.017c.141-.052.242-.2.324-.345.131-.238.303-.455.347-.731.046-.273-.095-.528-.1-.789-.005-.238.054-.453-.003-.693a1.304 1.304 0 0 0-.154-.368c-.337-.56-.941-.835-1.532-.867-.283-.014-.604.041-.789.299z" opacity=".7"/><path fill="#00719a" style="fill:var(--color3,#00719a)" d="M5.683 13.92a1.729 1.729 0 0 1-.915-.754c1.853-2.292 3.421-4.873 4.981-7.44.308.087.627.18.884.397s.442.589.375.957c-.054.29-.247.516-.429.725a86.776 86.776 0 0 0-4.896 6.115z" opacity=".7"/><path fill="#eaddd0" style="fill:var(--color11,#eaddd0)" d="M4.444 13.496c-.236.058-.475.116-.689.244a.475.475 0 0 0-.182.171c-.044.075-.054.183-.008.258.1.165.36.067.481.212.028.035.046.081.074.116.064.072.167.075.26.07.203-.009.414-.02.599-.116.236-.122.401-.365.555-.603.015-.026.033-.052.039-.081.008-.052-.018-.104-.049-.145-.116-.165-.337-.319-.529-.305-.077.006-.128.052-.198.084-.113.049-.236.067-.352.096z" opacity=".7"/><path fill="#edddb2" style="fill:var(--color14,#edddb2)" d="M5.812 3.225a1.12 1.12 0 0 1-.162-.882c.069-.293.252-.528.455-.708s.432-.313.648-.479c.316-.241.596-.545.828-.896.031-.046.082-.096.118-.055l.062.342c.095-.142.195-.29.337-.357.267-.133.617.052.846-.165a3.979 3.979 0 0 1-.789 2.199 3.911 3.911 0 0 1-1.177 1.038c-.411.232-.804.461-1.164-.038z" opacity=".7"/><path fill="#edddb2" style="fill:var(--color14,#edddb2)" d="M8.289 3.579c.033-.075.082-.165.162-.162.1.003.139.151.111.252s-.093.194-.082.302c.01.093.072.168.126.241.2.278.298.635.267.98a8.46 8.46 0 0 1 .666-1.572c.118-.215.247-.426.308-.667.054-.209.059-.429.044-.644-.018-.249-.062-.505-.198-.711-.208-.316-.604-.455-.961-.418-.36.038-.686.226-.971.453-.221.177-.969.745-.632 1.125.177.2.527.073.75.183a.74.74 0 0 1 .411.638z" opacity=".7"/></symbol><symbol id="icon-youtube" viewBox="0 0 32 32"><path fill="#fcfcfb" style="fill:var(--color1,#fcfcfb)" d="M29.384 5.513C28.518 4.863 26.105 4 15.992 4 5.155 4 3.547 4.991 3.031 5.316.285 7.036.024 14.648 0 16.192c.033 2.039.349 8.822 3.029 10.5.515.323 2.114 1.309 12.963 1.309 10.119 0 12.53-.859 13.392-1.506 2.341-1.755 2.61-7.799 2.616-10.329-.006-2.035-.211-8.846-2.616-10.652zm-1.167 19.291c-.348.261-2.347 1.114-12.226 1.114-9.55 0-11.554-.773-11.933-1.011-.964-.603-1.981-3.803-2.061-8.721.079-4.907 1.11-8.49 2.063-9.085.38-.239 2.391-1.018 11.931-1.018 9.871 0 11.875.858 12.225 1.12.856.642 1.772 4.024 1.785 8.969-.013 5.022-.936 7.995-1.785 8.632zm-5.711-9.623-8.988-5.749a.967.967 0 0 0-1.007-.015c-.154.091-.283.222-.372.382s-.136.341-.137.525v11.5c0 .276.105.541.293.736s.441.305.706.305c.182 0 .36-.052.516-.149l8.989-5.751c.3-.189.483-.527.483-.892s-.183-.704-.482-.892zm-8.505 4.798v-7.812l6.056 3.906-6.056 3.907z"/></symbol><symbol id="icon-instagram" viewBox="0 0 32 32"><path fill="#fcfcfb" style="fill:var(--color1,#fcfcfb)" d="M9.953 1.421c1.564-.072 2.063-.088 6.047-.088s4.483.017 6.045.088c1.563.071 2.629.32 3.563.681a7.218 7.218 0 0 1 2.597 1.693 7.158 7.158 0 0 1 1.691 2.596c.363.933.611 2 .683 3.56.072 1.567.088 2.065.088 6.048 0 3.984-.017 4.483-.088 6.047-.071 1.56-.32 2.627-.683 3.56a7.19 7.19 0 0 1-1.691 2.599 7.187 7.187 0 0 1-2.597 1.691c-.933.363-2 .611-3.56.683-1.565.072-2.064.088-6.048.088s-4.483-.017-6.047-.088c-1.56-.071-2.627-.32-3.56-.683a7.19 7.19 0 0 1-2.599-1.691 7.185 7.185 0 0 1-1.692-2.597c-.361-.933-.609-2-.681-3.56-.072-1.567-.088-2.065-.088-6.048 0-3.984.017-4.483.088-6.045s.32-2.629.681-3.563a7.192 7.192 0 0 1 1.693-2.597 7.195 7.195 0 0 1 2.596-1.692c.933-.361 2-.609 3.56-.681h.001zm11.974 2.64C20.38 3.99 19.916 3.976 16 3.976s-4.38.015-5.927.085c-1.431.065-2.207.304-2.724.505a4.57 4.57 0 0 0-1.687 1.096 4.543 4.543 0 0 0-1.096 1.687c-.201.517-.44 1.293-.505 2.724-.071 1.547-.085 2.011-.085 5.927s.015 4.38.085 5.927c.065 1.431.304 2.207.505 2.724a4.56 4.56 0 0 0 1.096 1.687 4.551 4.551 0 0 0 1.687 1.096c.517.201 1.293.44 2.724.505 1.547.071 2.009.085 5.927.085s4.38-.015 5.927-.085c1.431-.065 2.207-.304 2.724-.505a4.57 4.57 0 0 0 1.687-1.096 4.551 4.551 0 0 0 1.096-1.687c.201-.517.44-1.293.505-2.724.071-1.547.085-2.011.085-5.927s-.015-4.38-.085-5.927c-.065-1.431-.304-2.207-.505-2.724a4.57 4.57 0 0 0-1.096-1.687 4.543 4.543 0 0 0-1.687-1.096c-.517-.201-1.293-.44-2.724-.505zm-7.8 16.46a4.895 4.895 0 0 0 6.749-5 4.891 4.891 0 0 0-1.415-2.981 4.887 4.887 0 0 0-3.94-1.408 4.897 4.897 0 0 0-4.204 6.289 4.898 4.898 0 0 0 2.808 3.101zm-3.458-9.852a7.538 7.538 0 1 1 10.66 10.661 7.538 7.538 0 0 1-10.66-10.661zm14.542-1.085a1.785 1.785 0 0 0-.553-2.948 1.772 1.772 0 0 0-1.967.428 1.781 1.781 0 0 0 1.271 3.006c.464.007.912-.167 1.249-.486z"/></symbol><symbol id="icon-Facebook" viewBox="0 0 32 32"><path fill="#fcfcfb" style="fill:var(--color1,#fcfcfb)" d="M0 16.089C0 24.044 5.777 30.658 13.333 32V20.444h-4V16h4v-3.556c0-4 2.577-6.221 6.223-6.221 1.155 0 2.4.177 3.555.355v4.089h-2.044c-1.956 0-2.4.977-2.4 2.223v3.111h4.267l-.711 4.444h-3.556v11.556C26.223 30.66 32 24.046 32 16.09 32 7.241 24.8.001 16 .001S0 7.241 0 16.09z"/></symbol><symbol id="icon-twitter" viewBox="0 0 32 32"><path fill="none" stroke="#fcfcfb" style="stroke:var(--color1,#fcfcfb)" stroke-linecap="round" stroke-linejoin="round" stroke-width="2.667" d="M32 5.344s-1.027 2.799-2.933 4.531c2.347 13.327-13.787 23.056-26.4 15.459 3.227.133 6.453-.8 8.8-2.665-7.333-1.999-11-9.862-7.333-15.992 3.227 3.465 8.213 5.464 13.2 5.331-1.32-5.597 5.867-8.796 10.267-5.064 1.613 0 4.4-1.599 4.4-1.599z"/></symbol></defs></svg>