<svg xmlns="http://www.w3.org/2000/svg" width="24" height="24" fill="none" viewBox="0 0 24 24"><g id="simple-line-icons:social-youtube"><path id="Vector" fill="#FCFCFB" d="M22.0378 4.13466C21.3883 3.64738 19.5782 3 11.9936 3C3.86589 3 2.66005 3.74343 2.27306 3.98668C0.2135 5.27633 0.0179575 10.986 0 12.1437C0.0247237 13.6727 0.261847 18.76 2.27159 20.0184C2.65782 20.2609 3.8569 21 11.9936 21C19.5831 21 21.3909 20.3557 22.0378 19.8704C23.7932 18.5542 23.9951 14.0214 24 12.1238C23.9955 10.5979 23.8419 5.48918 22.0379 4.13469L22.0378 4.13466ZM21.1628 18.603C20.9017 18.799 19.4025 19.4382 11.9936 19.4382C4.83082 19.4382 3.32792 18.8587 3.04397 18.6803C2.32099 18.2281 1.55792 15.828 1.49801 12.1394C1.5572 8.45893 2.33075 5.77221 3.04551 5.32553C3.33021 5.14631 4.83871 4.56219 11.9936 4.56219C19.3965 4.56219 20.8997 5.20568 21.1627 5.40247C21.8045 5.88429 22.4915 8.42069 22.5016 12.1289C22.4915 15.8952 21.7999 18.1251 21.1627 18.603H21.1628ZM16.8795 11.3858L10.1383 7.07394C10.0246 7.00251 9.8948 6.96382 9.76211 6.96183C9.62942 6.95985 9.4986 6.99462 9.38303 7.06262C9.26736 7.13062 9.1711 7.22943 9.10409 7.34894C9.03709 7.46845 9.00175 7.60437 9.00169 7.74279V16.368C9.00179 16.575 9.08075 16.7736 9.22123 16.92C9.36171 17.0665 9.55222 17.1488 9.75089 17.1489C9.88725 17.1489 10.021 17.1101 10.1378 17.0368L16.8792 12.7234C17.104 12.5817 17.2414 12.3283 17.2414 12.0546C17.2414 11.7809 17.1043 11.5267 16.8796 11.3858H16.8795ZM10.5005 14.9846V9.12537L15.0425 12.0546L10.5005 14.9846Z"/></g></svg>