<svg xmlns="http://www.w3.org/2000/svg" width="30" height="32" fill="none" viewBox="0 0 30 32"><g id="ep:arrow-right"><path id="Vector" fill="#000" d="M9.9863 4.666C9.82276 4.8446 9.7312 5.08435 9.7312 5.334C9.7312 5.58366 9.82276 5.82341 9.9863 6.002L19.1232 16L9.9863 25.996C9.82276 26.1746 9.7312 26.4143 9.7312 26.664C9.7312 26.9136 9.82276 27.1534 9.9863 27.332C10.0658 27.4191 10.1608 27.4883 10.2658 27.5356C10.3708 27.5828 10.4836 27.6072 10.5976 27.6072C10.7115 27.6072 10.8243 27.5828 10.9293 27.5356C11.0343 27.4883 11.1293 27.4191 11.2088 27.332L20.925 16.698C21.0957 16.5112 21.1912 16.2608 21.1912 16C21.1912 15.7392 21.0957 15.4887 20.925 15.302L11.2088 4.668C11.1293 4.58092 11.0343 4.5117 10.9293 4.46444C10.8243 4.41717 10.7115 4.39282 10.5976 4.39282C10.4836 4.39282 10.3708 4.41717 10.2658 4.46444C10.1608 4.5117 10.0658 4.58092 9.9863 4.668V4.666Z"/></g></svg>