<svg xmlns="http://www.w3.org/2000/svg" width="30" height="26" fill="none" viewBox="0 0 30 26"><path stroke="#2D2A22" stroke-width="2" d="M9.66675 6.33333H20.3334M9.66675 6.33333H4.33341C3.62617 6.33333 2.94789 6.61428 2.4478 7.11438C1.9477 7.61448 1.66675 8.29276 1.66675 9V22.3333C1.66675 23.0406 1.9477 23.7189 2.4478 24.219C2.94789 24.719 3.62617 25 4.33341 25H25.6667C26.374 25 27.0523 24.719 27.5524 24.219C28.0525 23.7189 28.3334 23.0406 28.3334 22.3333V9C28.3334 8.29276 28.0525 7.61448 27.5524 7.11438C27.0523 6.61428 26.374 6.33333 25.6667 6.33333H20.3334H9.66675ZM9.66675 6.33333V1.8C9.66675 1.58783 9.75103 1.38434 9.90106 1.23431C10.0511 1.08429 10.2546 1 10.4667 1H19.5334C19.7456 1 19.9491 1.08429 20.0991 1.23431C20.2491 1.38434 20.3334 1.58783 20.3334 1.8V6.33333H9.66675Z"/></svg>