<svg xmlns="http://www.w3.org/2000/svg" width="32" height="32" fill="none" viewBox="0 0 32 32"><path stroke="#2D2A22" stroke-linecap="round" stroke-linejoin="round" stroke-width="2" d="M20.6667 30H11.3333M20.6667 30V16.9326C20.6667 16.6851 20.5683 16.4477 20.3933 16.2726C20.2183 16.0976 19.9809 15.9993 19.7333 15.9993H12.2667C12.0191 15.9993 11.7817 16.0976 11.6067 16.2726C11.4317 16.4477 11.3333 16.6851 11.3333 16.9326V30M20.6667 30H29.0667C29.3142 30 29.5516 29.9017 29.7266 29.7266C29.9017 29.5516 30 29.3142 30 29.0666V25.4887C30 25.2411 29.9017 25.0037 29.7266 24.8286C29.5516 24.6536 29.3142 24.5553 29.0667 24.5553H21.6C21.3525 24.5553 21.1151 24.6536 20.94 24.8286C20.765 25.0037 20.6667 25.2411 20.6667 25.4887V30ZM11.3333 30V22.3774C11.3333 22.1298 11.235 21.8924 11.06 21.7174C10.8849 21.5423 10.6475 21.444 10.4 21.444H2.93333C2.6858 21.444 2.4484 21.5423 2.27337 21.7174C2.09833 21.8924 2 22.1298 2 22.3774V29.0666C2 29.3142 2.09833 29.5516 2.27337 29.7266C2.4484 29.9017 2.6858 30 2.93333 30H11.3333ZM14.1427 5.28557L15.5567 2.28785C15.5948 2.20216 15.657 2.12936 15.7357 2.07828C15.8144 2.02719 15.9062 2 16 2C16.0938 2 16.1856 2.02719 16.2643 2.07828C16.343 2.12936 16.4052 2.20216 16.4433 2.28785L17.8589 5.28557L21.0198 5.76937C21.4258 5.8316 21.5876 6.35429 21.2936 6.65298L19.0069 8.98643L19.5467 12.2813C19.6151 12.7044 19.192 13.028 18.828 12.8273L16 11.2717L13.172 12.8273C12.8096 13.0264 12.3849 12.7044 12.4533 12.2813L12.9931 8.98643L10.7064 6.65298C10.4109 6.35429 10.5742 5.8316 10.9787 5.76937L14.1427 5.28713V5.28557Z"/></svg>