<svg aria-hidden="true" style="position: absolute; width: 0; height: 0; overflow: hidden;" version="1.1" xmlns="http://www.w3.org/2000/svg" xmlns:xlink="http://www.w3.org/1999/xlink">
<defs>
<symbol id="icon-arcticons_map" viewBox="0 0 32 32">
<path fill="none" stroke="#fcfcfb" style="stroke: var(--color1, #fcfcfb)" stroke-linejoin="round" stroke-linecap="round" stroke-miterlimit="4" stroke-width="1.3333" d="M16 3c-2.62 0-5.133 1.041-6.986 2.894s-2.894 4.366-2.894 6.986v0 0.72c0.4 5.413 4.893 9.767 9.88 15.4 5.207-5.88 9.88-10.333 9.88-16.12 0-2.62-1.041-5.133-2.894-6.986s-4.366-2.894-6.986-2.894zM16 8.133c0.94 0 1.86 0.279 2.641 0.802s1.391 1.265 1.751 2.134c0.36 0.869 0.453 1.825 0.269 2.747s-0.637 1.769-1.303 2.434c-0.665 0.665-1.513 1.117-2.435 1.299s-1.878 0.088-2.747-0.273c-0.868-0.361-1.61-0.971-2.132-1.754s-0.799-1.702-0.798-2.643c0.002-1.26 0.503-2.467 1.395-3.357s2.099-1.39 3.359-1.39z"></path>
</symbol>
<symbol id="icon-arcticons_phone" viewBox="0 0 32 32">
<path fill="none" stroke="#fcfcfb" style="stroke: var(--color1, #fcfcfb)" stroke-linejoin="round" stroke-linecap="round" stroke-miterlimit="4" stroke-width="1.3333" d="M27.147 20.187c-1.412-0.174-2.814-0.421-4.2-0.74-0.339-0.113-0.7-0.137-1.051-0.069s-0.677 0.225-0.949 0.456c-0.353 0.36-1.373 1.367-2.433 2.407-3.798-1.867-6.869-4.941-8.733-8.74 1.033-1.060 2-2.073 2.393-2.427 0.231-0.272 0.388-0.599 0.456-0.949s0.044-0.712-0.069-1.051c-0.319-1.389-0.566-2.793-0.74-4.207-0.019-0.18-0.074-0.354-0.162-0.513s-0.208-0.297-0.351-0.407c-0.143-0.11-0.308-0.19-0.483-0.235s-0.358-0.053-0.537-0.025h-5.68c-0.234 0.021-0.454 0.124-0.62 0.291s-0.267 0.387-0.287 0.622c-0.367 5.127 2.493 10.613 3.073 11.667v0.040l0.080 0.153c2.076 3.601 5.066 6.591 8.667 8.667v0l0.293 0.167c1.333 0.707 6.633 3.373 11.587 3.007 0.237-0.016 0.46-0.117 0.63-0.283s0.275-0.387 0.297-0.624v-5.673c0.028-0.179 0.019-0.361-0.025-0.537s-0.125-0.34-0.235-0.483-0.249-0.263-0.407-0.351c-0.158-0.088-0.333-0.143-0.513-0.162z"></path>
</symbol>
<symbol id="icon-arcticons_spike-email" viewBox="0 0 32 32">
<path fill="none" stroke="#fcfcfb" style="stroke: var(--color1, #fcfcfb)" stroke-linejoin="round" stroke-linecap="round" stroke-miterlimit="4" stroke-width="1.3333" d="M25.148 27.035c0.356-0.296 0.698-0.608 1.025-0.937M23.879 16c-0.002-1.972-0.744-3.872-2.079-5.323s-3.166-2.348-5.131-2.514c-1.965-0.166-3.921 0.412-5.48 1.62s-2.609 2.956-2.94 4.9c-0.332 1.944 0.078 3.941 1.149 5.598s2.724 2.85 4.632 3.346c1.909 0.495 3.934 0.257 5.675-0.669s3.071-2.472 3.727-4.332c0.297-0.843 0.449-1.731 0.449-2.625h-0.001z"></path>
<path fill="none" stroke="#fcfcfb" style="stroke: var(--color1, #fcfcfb)" stroke-linejoin="round" stroke-linecap="round" stroke-miterlimit="4" stroke-width="1.3333" d="M30.333 16c0.004-2.223-0.509-4.416-1.499-6.406s-2.428-3.723-4.203-5.061c-1.774-1.339-3.836-2.246-6.021-2.651s-4.435-0.296-6.571 0.318c-2.136 0.614-4.1 1.716-5.737 3.22s-2.901 3.367-3.694 5.444c-0.793 2.076-1.091 4.309-0.873 6.521s0.948 4.343 2.132 6.224l-0.889 5.413 5.413-0.889c1.949 1.228 4.166 1.967 6.462 2.154s4.603-0.183 6.725-1.079"></path>
<path fill="none" stroke="#fcfcfb" style="stroke: var(--color1, #fcfcfb)" stroke-linejoin="round" stroke-linecap="round" stroke-miterlimit="4" stroke-width="1.3333" d="M23.43 18.624c-0.963 2.348 0.605 3.611 1.953 3.918 1.645 0.373 4.95-1.346 4.95-6.542"></path>
</symbol>
<symbol id="icon-ep_arrow-right-1" viewBox="0 0 30 32">
<path d="M20.014 4.666c0.163 0.179 0.255 0.418 0.255 0.668s-0.092 0.489-0.255 0.668l-9.137 9.998 9.137 9.996c0.163 0.179 0.255 0.418 0.255 0.668s-0.092 0.489-0.255 0.668c-0.079 0.087-0.174 0.156-0.279 0.204s-0.218 0.072-0.332 0.072c-0.114 0-0.227-0.024-0.332-0.072s-0.2-0.116-0.279-0.204l-9.716-10.634c-0.171-0.187-0.266-0.437-0.266-0.698s0.095-0.511 0.266-0.698l9.716-10.634c0.079-0.087 0.174-0.156 0.279-0.204s0.218-0.072 0.332-0.072c0.114 0 0.227 0.024 0.332 0.072s0.2 0.116 0.279 0.204v-0.002z"></path>
</symbol>
<symbol id="icon-ep_arrow-right" viewBox="0 0 30 32">
<path d="M9.986 4.666c-0.164 0.179-0.255 0.418-0.255 0.668s0.092 0.489 0.255 0.668l9.137 9.998-9.137 9.996c-0.164 0.179-0.255 0.418-0.255 0.668s0.092 0.489 0.255 0.668c0.079 0.087 0.175 0.156 0.28 0.204s0.218 0.072 0.332 0.072c0.114 0 0.227-0.024 0.332-0.072s0.2-0.116 0.28-0.204l9.716-10.634c0.171-0.187 0.266-0.437 0.266-0.698s-0.096-0.511-0.266-0.698l-9.716-10.634c-0.079-0.087-0.175-0.156-0.28-0.204s-0.218-0.072-0.332-0.072c-0.114 0-0.227 0.024-0.332 0.072s-0.2 0.116-0.28 0.204v-0.002z"></path>
</symbol>
<symbol id="icon-__svg" viewBox="0 0 26 32">
<path fill="#000" style="fill: var(--color2, #000)" opacity="0.7" d="M0.61 31.419c3.382 1.044 6.962 0.070 10.468-0.046 1.604-0.052 3.21 0.076 4.811 0.168 2.531 0.145 5.068 0.203 7.602 0.258 0.771 0.017 1.568 0.029 2.28-0.308 0.17-0.081 0.36-0.241 0.314-0.444-0.046-0.212-0.295-0.244-0.488-0.232-3.408 0.192-6.818 0.035-10.223-0.136-3.421-0.171-6.849-0.354-10.272-0.212-0.92 0.038-1.85 0.18-2.768 0.171-0.65-0.003-1.342 0.093-1.722 0.78z"></path>
<path fill="#000" style="fill: var(--color2, #000)" opacity="0.7" d="M0.609 31.419c3.382 1.044 6.962 0.070 10.468-0.046 1.604-0.052 3.21 0.076 4.811 0.168 2.531 0.145 5.068 0.203 7.602 0.258 0.771 0.017 1.568 0.029 2.28-0.308 0.17-0.081 0.36-0.241 0.314-0.444-0.046-0.212-0.295-0.244-0.488-0.232-3.408 0.192-6.818 0.035-10.223-0.136-3.421-0.171-6.849-0.354-10.272-0.212-0.92 0.038-1.85 0.18-2.768 0.171-0.65-0.003-1.342 0.093-1.722 0.78z"></path>
<path fill="#00719a" style="fill: var(--color3, #00719a)" opacity="0.7" d="M9.179 10.862c-0.044 0.131-0.090 0.261-0.17 0.368-0.087 0.116-0.211 0.189-0.332 0.258-0.892 0.519-1.784 1.036-2.675 1.555-0.111-0.218-0.221-0.438-0.334-0.656 0.694-0.595 1.385-1.186 2.079-1.781 0.085-0.072 0.17-0.145 0.239-0.235 0.105-0.139 0.17-0.313 0.229-0.484 0.347-0.972 0.691-1.946 1.038-2.918 0.121-0.342 0.257-0.705 0.527-0.914 0.252-0.194 0.738-0.194 0.858 0.183 0.123 0.386-0.218 0.998-0.337 1.343-0.375 1.091-0.75 2.187-1.123 3.281z"></path>
<path fill="#404040" style="fill: var(--color4, #404040)" opacity="0.7" d="M6.335 13.282c-0.447-0.554-1.799-0.638-2.285-0.087-0.676 0.766 0.578 1.265 1.049 1.404 0.396 0.119 0.547-0.612 0.165-0.673-0.216-0.035-0.437-0.067-0.648-0.133-0.17-0.052-0.324-0.154-0.093-0.319 0.098-0.070 0.329-0.052 0.442-0.061 0.439-0.029 0.907 0.113 1.334 0.020 0.062-0.012 0.074-0.104 0.036-0.151z"></path>
<path fill="#333" style="fill: var(--color5, #333)" opacity="0.7" d="M8.42 30.253c0.612-0.598 1.038-1.387 1.156-2.361 0.26-2.17-0.678-4.426-2.429-5.508-1.347-0.832-3.254-1.247-4.711-0.392-2.645 1.552-3.125 6.579-0.807 8.592 1.768 1.529 5.035 1.383 6.79-0.33z"></path>
<path fill="#404040" style="fill: var(--color4, #404040)" opacity="0.7" d="M8.104 29.775c0.56-0.543 0.956-1.253 1.067-2.132 0.247-1.955-0.604-3.983-2.2-4.948-1.228-0.743-2.971-1.105-4.307-0.331-2.426 1.41-2.886 5.941-0.771 7.739 1.611 1.372 4.6 1.227 6.212-0.328z"></path>
<path fill="#ddd2c7" style="fill: var(--color6, #ddd2c7)" opacity="0.7" d="M11.889 19.306c-0.429 0.017-0.83 0.162-1.208 0.389-0.062 0.038-0.129 0.081-0.159 0.154-0.031 0.070-0.028 0.154-0.023 0.232 0.036 0.598 0.072 1.195 0.108 1.795 0.028 0.479 0.059 0.96 0.139 1.436 0.075 0.45 0.267 0.83 0.357 1.265 0.211 1.018 0.501 2.013 0.792 3.002 0.141-0.017 0.28-0.035 0.421-0.052 0 0-0.203-1.268-0.218-1.349-0.051-0.299-0.159-0.569-0.206-0.876-0.054-0.348-0.095-0.696-0.134-1.047-0.039-0.348-0.080-0.696-0.054-1.044 0.015-0.215 0.057-0.429 0.098-0.638 0.203-1.053 0.406-2.109 0.609-3.162-0.165-0.084-0.342-0.11-0.522-0.105z"></path>
<path fill="#737373" style="fill: var(--color7, #737373)" opacity="0.7" d="M11.403 12.388c-0.057 0.072-0.134 0.2-0.144 0.299-0.254 2.245-0.596 4.751-0.848 6.996 0.712 0.229 1.452 0.357 2.192 0.377 1.298-2.703 2.621-5.491 2.976-8.557-1.365 0.348-2.727 0.696-4.091 1.044-0.087 0.020-0.026-0.238-0.085-0.16z"></path>
<path fill="#333" style="fill: var(--color5, #333)" opacity="0.7" d="M22.648 25.322c-0.175-0.702-0.532-1.323-1.115-1.755-1.298-0.966-3.053-0.992-4.333 0.049-0.987 0.801-1.894 2.199-1.84 3.675 0.098 2.68 3.141 4.818 5.207 3.64 1.573-0.899 2.585-3.594 2.082-5.61z"></path>
<path fill="#404040" style="fill: var(--color4, #404040)" opacity="0.7" d="M22.305 25.435c-0.154-0.635-0.473-1.195-0.992-1.584-1.156-0.87-2.724-0.89-3.87 0.052-0.882 0.725-1.694 1.99-1.65 3.321 0.082 2.422 2.796 4.345 4.641 3.278 1.408-0.812 2.316-3.249 1.871-5.067z"></path>
<path fill="#ebebeb" style="fill: var(--color8, #ebebeb)" opacity="0.7" d="M19.376 26.175c-0.021-0.006-0.041-0.012-0.062-0.020-0.673-0.267-1.403-0.105-2.102-0.070-0.843 0.044-1.709-0.415-2.549-0.426-0.712-0.009-1.103-0.258-1.177-0.992-0.033-0.325-0.17-0.638-0.211-0.969-0.018-0.142-0.208-0.455-0.319-0.699-0.075-0.162-0.198-0.29-0.352-0.345-0.624-0.226-1.031-0.273-1.691-0.644-0.581-0.325-1.136-0.702-1.722-1.018-0.583-0.316-1.252-0.629-1.313-1.505-0.013-0.177 0.008-0.354 0.054-0.522 0.193-0.693 0.709-1.137 1.259-1.439 1.241-0.679 2.668-0.719 4.043-0.818 0.853-0.061 1.791-0.119 2.596-0.47 0.285-0.125 0.84-0.76 0.352-0.998-0.242-0.116-0.92 0.148-1.182 0.194-0.409 0.073-0.815 0.151-1.223 0.226-1.665 0.313-3.333 0.632-5.017 0.792-0.995 0.093-2.084 0.174-2.809 0.948-0.786 0.838-0.869 2.268-0.488 3.411 0.003 0.009 0.008 0.017 0.010 0.026 0.033 0.235 0.118 0.453 0.234 0.58 0.021 0.023 0.046 0.047 0.067 0.070 0.074 0.119 0.157 0.229 0.254 0.325 0.103 0.102 0.216 0.183 0.337 0.252 0.393 0.354 0.807 0.682 1.221 1.004 1.403 1.094 2.806 2.19 4.21 3.284 0.342 0.267 0.696 0.54 1.103 0.641 0.447 0.113 0.912 0.006 1.365-0.075 1.406-0.255 2.835-0.276 4.261-0.279 0.303 0.113 0.609 0.226 0.912 0.342-0.113-0.238 0.064-0.577-0.059-0.806z"></path>
<path fill="#ebebeb" style="fill: var(--color8, #ebebeb)" opacity="0.7" d="M5.494 14.227c-0.031-0.215-0.586-0.125-0.614 0.084-0.123 0.972-0.069 3.153-0.080 4.116-0.013 1.001-0.026 2.001-0.031 3.005-0.013 1.909-0.085 3.837-0.887 5.79-0.147 0.354 0.838 0.36 0.979 0.009 0.779-1.961 0.825-3.893 0.802-5.804-0.013-0.995-0.039-1.99-0.062-2.988-0.026-0.998 0.033-3.228-0.108-4.212z"></path>
<path fill="#3d322b" style="fill: var(--color9, #3d322b)" opacity="0.7" d="M10.471 27.999c-0.046 0.093-0.023 0.203 0.141 0.316 0.457 0.311 1.064 0.29 1.506-0.049 0.075-0.058 0.146-0.125 0.229-0.168 0.154-0.084 0.36-0.099 0.44-0.273 0.085-0.183-0.026-0.403-0.134-0.568-0.095-0.145-0.144-0.281-0.319-0.212-0.321 0.131-0.643 0.258-0.946 0.435-0.195 0.113-0.388 0.247-0.599 0.305-0.131 0.035-0.267 0.113-0.319 0.215z"></path>
<path fill="#4d4d4d" style="fill: var(--color10, #4d4d4d)" opacity="0.7" d="M13.46 26.079c-0.036-0.122-0.103-0.229-0.203-0.302-0.357-0.258-0.894-0.258-1.146 0.194-0.27 0.485-0.141 1.143 0.296 1.41 0.182 0.113 0.434 0.215 0.642 0.159 0.236-0.061 0.393-0.249 0.519-0.484 0.188-0.351 0.093-0.705-0.108-0.977z"></path>
<path fill="#4d4d4d" style="fill: var(--color10, #4d4d4d)" opacity="0.7" d="M13.215 23.596c-0.257 0.27-0.501 0.566-0.689 0.902-0.077 0.136 0.1 0.296 0.193 0.168 0.218-0.299 0.439-0.58 0.707-0.827 0.154-0.139-0.059-0.4-0.211-0.244z"></path>
<path fill="#4d4d4d" style="fill: var(--color10, #4d4d4d)" opacity="0.7" d="M12.534 24.527c0.039 0.682 0.149 1.36 0.252 2.030 0.031 0.209 0.316 0.119 0.283-0.087-0.111-0.656-0.188-1.325-0.306-1.978-0.026-0.145-0.236-0.116-0.229 0.035z"></path>
<path fill="#4d4d4d" style="fill: var(--color10, #4d4d4d)" opacity="0.7" d="M12.392 27.129c-0.059 0.229-0.087 0.467-0.111 0.705-0.021 0.194 0.010 0.47-0.044 0.676-0.236-0.020-0.465-0.029-0.699-0.099-0.265-0.078-0.378 0.403-0.113 0.479 0.316 0.090 0.655 0.151 0.977 0.061 0.077-0.020 0.139-0.116 0.136-0.212-0.008-0.223 0.033-0.458 0.041-0.685 0.010-0.284 0.049-0.56 0.085-0.838 0.023-0.203-0.218-0.293-0.272-0.087z"></path>
<path fill="#ebebeb" style="fill: var(--color8, #ebebeb)" opacity="0.7" d="M3.358 26.659c0.008 0.29 0.069 0.586 0.224 0.821 0.131 0.2 0.326 0.339 0.535 0.421 0.355 0.139 0.758 0.105 1.090-0.093s0.586-0.551 0.689-0.957c0.031-0.125 0.049-0.255 0.026-0.383-0.113-0.659-0.889-1.273-1.467-1.27-0.673 0-1.113 0.772-1.095 1.462z"></path>
<path fill="#ebebeb" style="fill: var(--color8, #ebebeb)" opacity="0.7" d="M17.783 27.117c0.008 0.29 0.069 0.586 0.224 0.821 0.131 0.2 0.326 0.339 0.535 0.42 0.355 0.139 0.758 0.105 1.090-0.093s0.586-0.551 0.689-0.957c0.031-0.125 0.049-0.255 0.026-0.383-0.113-0.658-0.889-1.273-1.468-1.27-0.673 0-1.113 0.772-1.095 1.462z"></path>
<path fill="#eaddd0" style="fill: var(--color11, #eaddd0)" opacity="0.7" d="M11.715 23.976c0.298-0.133 0.553-0.403 0.694-0.74-0.815-0.983-1.635-2.123-2.105-3.394-0.051-0.136-0.095-0.29-0.059-0.432 0.036-0.139 0.139-0.241 0.239-0.328 0.152-0.133 0.923-0.597 0.899-0.777-0.021-0.159-0.475-0.45-0.591-0.551-0.244-0.215-0.411-0.322-0.709-0.418-0.036-0.012-0.072-0.023-0.108-0.014-0.031 0.009-0.057 0.029-0.082 0.049-0.326 0.278-0.581 0.658-0.766 1.079-0.085 0.194-0.157 0.403-0.177 0.621-0.069 0.714 0.468 1.23 0.822 1.714 0.463 0.632 0.892 1.297 1.321 1.961 0.252 0.383 0.501 0.774 0.622 1.23z"></path>
<path fill="#6b6b6b" style="fill: var(--color12, #6b6b6b)" opacity="0.7" d="M15.313 11.622c0.275-0.087 0.56 0.081 0.655 0.394 0.429 1.413 0.136 3.127-0.771 4.22-0.491 0.592-1.121 0.995-1.74 1.389-0.668 0.426-1.339 0.853-2.007 1.279-0.365-0.569-0.804-1.073-1.293-1.491-0.062-0.052-0.126-0.107-0.157-0.191-0.054-0.154 0.033-0.322 0.118-0.455 0.419-0.658 0.892-1.276 1.228-1.996 0.339-0.719 0.537-1.572 0.357-2.358 1.218-0.151 2.424-0.418 3.608-0.792z"></path>
<path fill="#3d322b" style="fill: var(--color9, #3d322b)" opacity="0.7" d="M11.054 24.899c-0.008 0.107 0.054 0.194 0.244 0.209 0.527 0.041 1.069-0.293 1.342-0.827 0.046-0.090 0.087-0.189 0.144-0.27 0.108-0.154 0.288-0.276 0.298-0.473 0.010-0.209-0.172-0.348-0.332-0.441-0.139-0.081-0.234-0.177-0.365-0.026-0.242 0.281-0.486 0.566-0.694 0.882-0.136 0.203-0.26 0.423-0.429 0.586-0.105 0.101-0.2 0.244-0.208 0.36z"></path>
<path fill="#404040" style="fill: var(--color4, #404040)" opacity="0.7" d="M6.353 15.19c-0.537 0.029-1.085 0.070-1.624 0.046-0.123-0.006-0.247-0.014-0.37-0.026-0.355 0.023-0.704-0.348-0.265-0.69 0.167-0.2 0.753-0.064 0.951-0.012 0.329 0.087 0.47-0.484 0.139-0.571-0.668-0.177-2.344-0.029-1.853 1.212 0.452 1.149 2.3 0.624 3.053 0.287 0.105-0.049 0.103-0.252-0.031-0.247z"></path>
<path fill="#066984" style="fill: var(--color13, #066984)" opacity="0.7" d="M8.096 7.126c0.514 0.537 0.635 0.824 0.966 1.532 0.234 0.502 0.416 1.036 0.658 1.532 0.342 0.705 0.797 1.323 1.249 1.938 0.149 0.2 0.301 0.406 0.501 0.531 0.141 0.087 0.301 0.131 0.46 0.16 1.473 0.267 2.958-0.31 4.313 0.4 0.393-2.144-1.239-3.974-2.344-5.546-0.18-0.255-0.329-0.508-0.542-0.728-0.224-0.232-0.452-0.452-0.691-0.661-0.468-0.412-0.964-0.78-1.483-1.099-0.681-0.421-1.411-0.595-2.059 0.032-0.488 0.47-0.871 1.201-1.028 1.912z"></path>
<path fill="#eaddd0" style="fill: var(--color11, #eaddd0)" opacity="0.7" d="M6.351 2.561c-0.195 0.273-0.167 0.67-0.11 1.012 0.054 0.342 0.126 0.685 0.285 0.978 0.111 0.203 0.26 0.371 0.411 0.534 0.193 0.209 0.414 0.392 0.594 0.612 0.162 0.194 0.288 0.354 0.542 0.377 0.062 0.006 0.126 0.003 0.185-0.017 0.141-0.052 0.242-0.2 0.324-0.345 0.131-0.238 0.303-0.455 0.347-0.731 0.046-0.273-0.095-0.528-0.1-0.789-0.005-0.238 0.054-0.453-0.003-0.693-0.031-0.133-0.087-0.255-0.154-0.368-0.337-0.56-0.941-0.835-1.532-0.867-0.283-0.014-0.604 0.041-0.789 0.299z"></path>
<path fill="#00719a" style="fill: var(--color3, #00719a)" opacity="0.7" d="M5.683 13.92c-0.367-0.122-0.696-0.392-0.915-0.754 1.853-2.292 3.421-4.873 4.981-7.44 0.308 0.087 0.627 0.18 0.884 0.397s0.442 0.589 0.375 0.957c-0.054 0.29-0.247 0.516-0.429 0.725-1.712 1.949-3.346 3.991-4.896 6.115z"></path>
<path fill="#eaddd0" style="fill: var(--color11, #eaddd0)" opacity="0.7" d="M4.444 13.496c-0.236 0.058-0.475 0.116-0.689 0.244-0.072 0.043-0.141 0.096-0.182 0.171-0.044 0.075-0.054 0.183-0.008 0.258 0.1 0.165 0.36 0.067 0.481 0.212 0.028 0.035 0.046 0.081 0.074 0.116 0.064 0.072 0.167 0.075 0.26 0.070 0.203-0.009 0.414-0.020 0.599-0.116 0.236-0.122 0.401-0.365 0.555-0.603 0.015-0.026 0.033-0.052 0.039-0.081 0.008-0.052-0.018-0.104-0.049-0.145-0.116-0.165-0.337-0.319-0.529-0.305-0.077 0.006-0.128 0.052-0.198 0.084-0.113 0.049-0.236 0.067-0.352 0.096z"></path>
<path fill="#edddb2" style="fill: var(--color14, #edddb2)" opacity="0.7" d="M5.812 3.225c-0.17-0.238-0.234-0.58-0.162-0.882 0.069-0.293 0.252-0.528 0.455-0.708s0.432-0.313 0.648-0.479c0.316-0.241 0.596-0.545 0.828-0.896 0.031-0.046 0.082-0.096 0.118-0.055 0.021 0.113 0.041 0.226 0.062 0.342 0.095-0.142 0.195-0.29 0.337-0.357 0.267-0.133 0.617 0.052 0.846-0.165-0.033 0.812-0.334 1.595-0.789 2.199-0.329 0.438-0.735 0.783-1.177 1.038-0.411 0.232-0.804 0.461-1.164-0.038z"></path>
<path fill="#edddb2" style="fill: var(--color14, #edddb2)" opacity="0.7" d="M8.289 3.579c0.033-0.075 0.082-0.165 0.162-0.162 0.1 0.003 0.139 0.151 0.111 0.252s-0.093 0.194-0.082 0.302c0.010 0.093 0.072 0.168 0.126 0.241 0.2 0.278 0.298 0.635 0.267 0.98 0.17-0.548 0.393-1.076 0.666-1.572 0.118-0.215 0.247-0.426 0.308-0.667 0.054-0.209 0.059-0.429 0.044-0.644-0.018-0.249-0.062-0.505-0.198-0.711-0.208-0.316-0.604-0.455-0.961-0.418-0.36 0.038-0.686 0.226-0.971 0.453-0.221 0.177-0.969 0.745-0.632 1.125 0.177 0.2 0.527 0.073 0.75 0.183 0.234 0.11 0.406 0.368 0.411 0.638z"></path>
</symbol>
</defs>
</svg>
