<svg xmlns="http://www.w3.org/2000/svg" width="95" height="116" fill="none" viewBox="0 0 95 116"><g id="Illustration - pavan 674" clip-path="url(#clip0_1_124)" opacity=".7"><path id="Vector" fill="url(#paint0_linear_1_124)" d="M2.21143 113.894C14.4716 117.68 27.4491 114.147 40.1564 113.726C45.9698 113.537 51.7924 114 57.5967 114.336C66.7728 114.862 75.9678 115.072 85.1539 115.272C87.9489 115.335 90.8367 115.377 93.4173 114.157C94.0323 113.863 94.7217 113.284 94.5539 112.549C94.3862 111.781 93.4828 111.665 92.784 111.707C80.4306 112.402 68.0678 111.833 55.7239 111.213C43.324 110.593 30.8961 109.93 18.4869 110.446C15.1517 110.583 11.7792 111.097 8.45333 111.066C6.09633 111.055 3.59023 111.403 2.21143 113.894Z"/><path id="Vector_2" fill="url(#paint1_linear_1_124)" d="M2.20923 113.894C14.4694 117.68 27.4469 114.147 40.1543 113.726C45.9676 113.537 51.7902 114 57.5945 114.336C66.7706 114.862 75.9656 115.072 85.1517 115.272C87.9467 115.335 90.8345 115.377 93.415 114.157C94.03 113.863 94.7195 113.284 94.5517 112.549C94.3839 111.781 93.4806 111.665 92.7817 111.707C80.4284 112.402 68.0656 111.833 55.7217 111.213C43.3218 110.593 30.8939 109.93 18.4847 110.446C15.1495 110.583 11.777 111.097 8.45114 111.066C6.09414 111.055 3.58803 111.403 2.20923 113.894Z"/><path id="Vector_3" fill="#00719A" d="M33.2728 39.3763C33.1144 39.8495 32.9468 40.3226 32.658 40.7116C32.3412 41.1322 31.894 41.3951 31.4562 41.6475C28.2235 43.5296 24.9907 45.4012 21.758 47.2834C21.3574 46.4948 20.9568 45.6956 20.5469 44.907C23.0623 42.7515 25.5683 40.6065 28.0836 38.451C28.3911 38.1882 28.6986 37.9252 28.9501 37.5993C29.3321 37.0946 29.5649 36.4636 29.7792 35.8433C31.0369 32.3209 32.2853 28.7879 33.543 25.2654C33.9809 24.0247 34.4747 22.7104 35.4528 21.9534C36.3658 21.2488 38.1266 21.2488 38.5644 22.6157C39.0116 24.0142 37.7725 26.2329 37.344 27.4841C35.9838 31.4376 34.6237 35.4122 33.2728 39.3763Z"/><path id="Vector_4" fill="#404040" d="M22.9652 48.1455C21.3441 46.1372 16.4438 45.8323 14.683 47.8301C12.2329 50.606 16.7792 52.4146 18.484 52.9193C19.9187 53.3504 20.4684 50.7007 19.0803 50.4798C18.2977 50.3537 17.4965 50.238 16.7326 49.9961C16.1177 49.8069 15.5588 49.4389 16.3972 48.8395C16.7512 48.5872 17.5897 48.6503 17.9996 48.6187C19.5927 48.5136 21.2883 49.0288 22.8348 48.6923C23.0583 48.6503 23.1049 48.3138 22.9652 48.1455Z"/><path id="Vector_5" fill="#333" d="M30.5221 109.668C32.7394 107.501 34.2859 104.641 34.7144 101.109C35.6554 93.2433 32.2549 85.0631 25.9106 81.141C21.0289 78.1232 14.1162 76.6195 8.83388 79.7214C-0.752517 85.3471 -2.49467 103.569 5.90861 110.866C12.3182 116.408 24.1591 115.881 30.5221 109.668Z"/><path id="Vector_6" fill="#404040" d="M29.3763 107.933C31.4072 105.966 32.8419 103.39 33.2425 100.204C34.1369 93.1173 31.0532 85.7673 25.2678 82.266C20.8146 79.5741 14.4983 78.2599 9.65381 81.0671C0.859269 86.1773 -0.808336 102.602 6.85892 109.121C12.7002 114.094 23.535 113.568 29.3763 107.933Z"/><path id="Vector_7" fill="#DDD2C7" d="M43.0984 69.985C41.5426 70.0477 40.0892 70.5738 38.7197 71.394C38.4961 71.5307 38.2539 71.6881 38.1421 71.9514C38.0303 72.2035 38.0396 72.5082 38.0583 72.7923C38.1887 74.9586 38.3191 77.1244 38.4495 79.3008C38.552 81.0358 38.6638 82.7814 38.9526 84.5058C39.2228 86.1354 39.9215 87.513 40.2476 89.0906C41.0115 92.7813 42.0642 96.3873 43.1169 99.9733C43.6293 99.9099 44.1324 99.8466 44.6448 99.7839C44.6448 99.7839 43.9089 95.189 43.853 94.8943C43.6667 93.8115 43.2753 92.8333 43.1077 91.7191C42.912 90.4575 42.763 89.1953 42.6232 87.923C42.4835 86.6615 42.3344 85.3999 42.4276 84.1377C42.4834 83.3595 42.6326 82.5814 42.7816 81.8246C43.5175 78.0079 44.2536 74.1805 44.9896 70.3638C44.3933 70.0584 43.7505 69.9637 43.0984 69.985Z"/><path id="Vector_8" fill="#737373" d="M41.3369 44.9071C41.132 45.1699 40.8525 45.6326 40.8152 45.9901C39.8929 54.1286 38.6538 63.2131 37.7408 71.3519C40.3215 72.1821 43.0045 72.6449 45.6876 72.7188C50.3923 62.919 55.1901 52.8142 56.4755 41.7001C51.5288 42.9618 46.5912 44.2237 41.6443 45.4854C41.3275 45.559 41.5512 44.6231 41.3369 44.9071Z"/><path id="Vector_9" fill="#333" d="M82.0978 91.7924C81.4639 89.248 80.1689 86.9976 78.0544 85.4312C73.3494 81.9299 66.9866 81.8352 62.3472 85.6099C58.7694 88.5118 55.481 93.5801 55.6766 98.9318C56.0305 108.648 67.0611 116.397 74.5511 112.128C80.2528 108.868 83.9233 99.1004 82.0978 91.7924Z"/><path id="Vector_10" fill="#404040" d="M80.8572 92.2025C80.2983 89.9 79.1433 87.8703 77.2611 86.4614C73.0689 83.3068 67.3861 83.2335 63.2311 86.6508C60.0356 89.2793 57.0917 93.8641 57.25 98.6903C57.5483 107.47 67.3861 114.441 74.075 110.572C79.1806 107.627 82.4689 98.795 80.8572 92.2025Z"/><path id="Vector_11" fill="#EBEBEB" d="M70.2395 94.8836C70.165 94.8623 70.0906 94.8416 70.0161 94.8103C67.575 93.8428 64.9295 94.4315 62.395 94.5576C59.3395 94.7156 56.2 93.054 53.1536 93.0119C50.573 92.9806 49.1569 92.0764 48.8867 89.4159C48.7656 88.2384 48.2718 87.1028 48.1228 85.904C48.0576 85.3886 47.3682 84.253 46.9676 83.3702C46.6974 82.7814 46.2502 82.3186 45.6912 82.1186C43.4274 81.2985 41.9555 81.1304 39.5612 79.7842C37.4557 78.6066 35.4434 77.2397 33.3193 76.0935C31.2045 74.9479 28.7823 73.8118 28.5587 70.6365C28.5121 69.995 28.5866 69.3536 28.7543 68.7441C29.4531 66.231 31.3256 64.6221 33.3193 63.5285C37.8191 61.0681 42.9896 60.9209 47.9737 60.5634C51.0667 60.3426 54.4671 60.1323 57.3833 58.86C58.4172 58.4079 60.4295 56.1051 58.6595 55.243C57.7839 54.8224 55.3242 55.7792 54.374 55.9474C52.8927 56.2103 51.4207 56.4942 49.9395 56.7676C43.9025 57.9032 37.8563 59.0598 31.7541 59.6381C28.1487 59.9746 24.1987 60.269 21.5715 63.0764C18.7207 66.115 18.4226 71.2993 19.8015 75.442C19.8108 75.4734 19.8294 75.5047 19.8387 75.5367C19.9598 76.3882 20.2672 77.177 20.6865 77.6391C20.761 77.7238 20.8541 77.8078 20.9287 77.8918C21.1988 78.3226 21.497 78.7226 21.851 79.0694C22.2236 79.4374 22.6336 79.7321 23.0715 79.9842C24.4968 81.2671 25.9967 82.4553 27.4967 83.6222C32.5833 87.5863 37.67 91.561 42.7566 95.5251C43.9957 96.4926 45.2813 97.4808 46.7533 97.8488C48.3743 98.2589 50.0606 97.8695 51.7002 97.5755C56.7961 96.65 61.9761 96.5766 67.1467 96.5659C68.2461 96.976 69.3545 97.3861 70.4539 97.8068C70.0439 96.9447 70.6867 95.7144 70.2395 94.8836Z"/><path id="Vector_12" fill="#EBEBEB" d="M19.9141 51.5734C19.8023 50.7953 17.7899 51.1213 17.6874 51.8783C17.2403 55.4008 17.4359 63.3078 17.3987 66.7991C17.3521 70.4264 17.3055 74.0538 17.2869 77.6924C17.2403 84.611 16.9794 91.603 14.0728 98.6796C13.5417 99.9625 17.1098 99.9832 17.6223 98.711C20.4451 91.603 20.6128 84.6004 20.5289 77.6711C20.4823 74.0644 20.3892 70.4578 20.3053 66.8411C20.2122 63.2238 20.4264 55.1379 19.9141 51.5734Z"/><path id="Vector_13" fill="#3D322B" d="M37.9558 101.497C37.7881 101.834 37.872 102.233 38.4682 102.643C40.1265 103.769 42.3251 103.695 43.9275 102.464C44.1977 102.254 44.4585 102.012 44.7566 101.855C45.3156 101.55 46.061 101.497 46.3498 100.866C46.6572 100.204 46.2566 99.4045 45.8653 98.8056C45.5206 98.2796 45.3436 97.7855 44.7101 98.0375C43.5456 98.5109 42.381 98.9737 41.2817 99.6151C40.5737 100.025 39.875 100.509 39.111 100.719C38.6359 100.845 38.1421 101.129 37.9558 101.497Z"/><path id="Vector_14" fill="#4D4D4D" d="M48.7912 94.5368C48.6609 94.0948 48.4186 93.706 48.0552 93.4433C46.7603 92.5071 44.8132 92.5071 43.9002 94.1474C42.922 95.9037 43.3878 98.2902 44.9716 99.2577C45.633 99.6678 46.546 100.036 47.3006 99.8358C48.1577 99.6151 48.726 98.9316 49.1825 98.0801C49.8626 96.8079 49.5179 95.525 48.7912 94.5368Z"/><path id="Vector_15" fill="#4D4D4D" d="M47.9038 85.5359C46.9722 86.5141 46.0872 87.5863 45.4071 88.8059C45.1276 89.3 45.7705 89.8787 46.1058 89.416C46.8977 88.3331 47.6989 87.3129 48.6678 86.4194C49.2268 85.9147 48.4535 84.9678 47.9038 85.5359Z"/><path id="Vector_16" fill="#4D4D4D" d="M45.4348 88.9111C45.5746 91.3823 45.9752 93.8427 46.3479 96.2712C46.4597 97.0286 47.4937 96.7026 47.3726 95.9558C46.972 93.5794 46.6926 91.1509 46.264 88.7851C46.1708 88.259 45.4069 88.3644 45.4348 88.9111Z"/><path id="Vector_17" fill="#4D4D4D" d="M44.922 98.3429C44.7077 99.1737 44.6052 100.036 44.5214 100.898C44.4469 101.602 44.5587 102.601 44.363 103.348C43.5059 103.275 42.6768 103.243 41.829 102.99C40.8694 102.706 40.4595 104.452 41.419 104.725C42.5649 105.052 43.7948 105.272 44.9593 104.946C45.2388 104.873 45.4623 104.525 45.453 104.179C45.425 103.369 45.5741 102.517 45.602 101.697C45.6393 100.667 45.779 99.6678 45.9095 98.6583C45.9933 97.9222 45.1176 97.5961 44.922 98.3429Z"/><path id="Vector_18" fill="#EBEBEB" d="M12.1721 96.6399C12.2 97.6914 12.4237 98.7636 12.9826 99.6151C13.4578 100.341 14.1658 100.845 14.9204 101.14C16.206 101.645 17.6687 101.519 18.8705 100.803C20.0723 100.089 20.9946 98.8056 21.3672 97.3334C21.479 96.8813 21.5442 96.4085 21.4604 95.9458C21.0505 93.5587 18.237 91.3296 16.1408 91.3402C13.7 91.3402 12.1069 94.1374 12.1721 96.6399Z"/><path id="Vector_19" fill="#EBEBEB" d="M64.4617 98.3009C64.4894 99.3524 64.7133 100.425 65.2722 101.277C65.7472 102.002 66.455 102.507 67.21 102.801C68.4956 103.306 69.9583 103.18 71.16 102.465C72.3617 101.75 73.2839 100.467 73.6567 98.995C73.7683 98.5429 73.8339 98.0695 73.75 97.6068C73.34 95.2203 70.5267 92.9912 68.43 93.0013C65.9894 93.0013 64.3961 95.7984 64.4617 98.3009Z"/><path id="Vector_20" fill="#EADDD0" d="M42.466 86.9135C43.5468 86.43 44.4691 85.4519 44.9815 84.2323C42.0282 80.6677 39.0563 76.5356 37.3515 71.93C37.1652 71.4359 37.0068 70.8785 37.1372 70.3631C37.2677 69.8583 37.6403 69.4909 38.0036 69.1749C38.5533 68.6914 41.3482 67.0091 41.2643 66.357C41.1898 65.7789 39.5408 64.7274 39.1216 64.3593C38.2365 63.5812 37.631 63.1924 36.5503 62.8451C36.4199 62.803 36.2894 62.761 36.159 62.793C36.0472 62.8244 35.954 62.8977 35.8609 62.9717C34.6777 63.9812 33.7554 65.3582 33.0847 66.8831C32.7772 67.5873 32.5164 68.3447 32.4418 69.1329C32.1903 71.72 34.1374 73.5917 35.423 75.3473C37.0999 77.6398 38.6558 80.0475 40.2115 82.4553C41.1245 83.8436 42.0282 85.2625 42.466 86.9135Z"/><path id="Vector_21" fill="#6B6B6B" d="M55.5106 42.1312C56.5072 41.8158 57.5417 42.4256 57.8861 43.5612C59.4422 48.6819 58.38 54.8961 55.0914 58.8602C53.312 61.0052 51.0295 62.4668 48.7842 63.8966C46.362 65.4422 43.9305 66.9878 41.5083 68.5341C40.1854 66.473 38.5923 64.6434 36.8222 63.1291C36.5986 62.9397 36.3657 62.7403 36.2539 62.4352C36.0583 61.8779 36.375 61.2681 36.6825 60.7844C38.201 58.3975 39.9152 56.1579 41.1356 53.5502C42.3654 50.9426 43.0827 47.8512 42.4306 45.0017C46.8465 44.455 51.2158 43.4876 55.5106 42.1312Z"/><path id="Vector_22" fill="#3D322B" d="M40.0718 90.2574C40.0438 90.6461 40.2674 90.9621 40.9568 91.0142C42.8666 91.1615 44.8324 89.9526 45.8199 88.0176C45.9876 87.6916 46.1366 87.3342 46.3416 87.0401C46.7329 86.4827 47.385 86.0406 47.4223 85.3258C47.4595 84.569 46.7981 84.0642 46.2205 83.7275C45.7174 83.4334 45.3727 83.0861 44.8976 83.6328C44.0219 84.653 43.1368 85.6832 42.3822 86.8294C41.8884 87.5655 41.4413 88.3644 40.8264 88.9538C40.4444 89.3212 40.0997 89.8366 40.0718 90.2574Z"/><path id="Vector_23" fill="#404040" d="M23.0311 55.0642C21.0839 55.1693 19.0996 55.3165 17.1432 55.2323C16.696 55.2113 16.2488 55.1799 15.8016 55.1378C14.516 55.2219 13.249 53.876 14.8421 52.6353C15.4477 51.9097 17.5718 52.404 18.2891 52.5932C19.4816 52.9086 19.9939 50.8372 18.7922 50.5218C16.3699 49.8804 10.2957 50.4167 12.0752 54.9169C13.7148 59.0808 20.4132 57.1776 23.1428 55.9579C23.5248 55.7791 23.5155 55.0431 23.0311 55.0642Z"/><path id="Vector_24" fill="#066984" d="M29.349 25.8332C31.2123 27.7785 31.6501 28.8194 32.8519 31.385C33.6997 33.2041 34.3612 35.1388 35.2369 36.9368C36.4759 39.4919 38.1249 41.7316 39.7646 43.9607C40.3049 44.6862 40.8546 45.4328 41.5812 45.8849C42.0936 46.2003 42.6712 46.3581 43.2488 46.4632C48.5871 47.4305 53.9718 45.3382 58.8817 47.9142C60.3067 40.1439 54.391 33.509 50.3851 27.8101C49.7329 26.8848 49.1926 25.9699 48.4193 25.1708C47.6088 24.3296 46.7797 23.5305 45.9133 22.7734C44.2177 21.2803 42.4197 19.9449 40.5378 18.7883C38.069 17.2637 35.4232 16.6328 33.0755 18.904C31.3054 20.6074 29.9173 23.2572 29.349 25.8332Z"/><path id="Vector_25" fill="#EADDD0" d="M23.024 9.28313C22.316 10.2716 22.4185 11.712 22.6235 12.9528C22.8191 14.1936 23.0799 15.4343 23.6575 16.4963C24.0581 17.2323 24.5985 17.8421 25.1481 18.431C25.8468 19.188 26.6481 19.8505 27.3002 20.6496C27.8871 21.3541 28.3436 21.9324 29.2659 22.0165C29.4895 22.0375 29.7225 22.027 29.9367 21.9534C30.4491 21.7642 30.8124 21.2279 31.1105 20.7022C31.5856 19.8399 32.2098 19.0513 32.3682 18.0524C32.5359 17.064 32.0235 16.1388 32.0049 15.1924C31.9862 14.3303 32.2005 13.5521 31.9956 12.6794C31.8838 12.1957 31.6788 11.7541 31.4366 11.344C30.2162 9.31467 28.0268 8.31575 25.8841 8.20013C24.8593 8.14752 23.6948 8.34735 23.024 9.28313Z"/><path id="Vector_26" fill="#00719A" d="M20.6017 50.4589C19.2695 50.0172 18.077 49.0394 17.2852 47.725C24.0022 39.4183 29.685 30.0602 35.34 20.7546C36.458 21.0701 37.6132 21.4066 38.5448 22.1952C39.4764 22.9838 40.1472 24.3296 39.9049 25.665C39.7093 26.7165 39.0106 27.5366 38.3492 28.2937C32.1445 35.3596 26.2194 42.762 20.6017 50.4589Z"/><path id="Vector_27" fill="#EADDD0" d="M16.1082 48.9236C15.2511 49.1339 14.3847 49.3442 13.6115 49.8068C13.3506 49.9645 13.099 50.1538 12.95 50.4272C12.7916 50.7006 12.7543 51.0896 12.922 51.3629C13.2853 51.9623 14.2263 51.6049 14.6642 52.1306C14.7666 52.2568 14.8318 52.4249 14.9343 52.5512C15.1672 52.814 15.5399 52.8245 15.8753 52.8035C16.6112 52.7719 17.3752 52.7299 18.046 52.3829C18.9031 51.9413 19.4993 51.0581 20.0582 50.1959C20.1141 50.1012 20.1794 50.0066 20.198 49.9014C20.226 49.7122 20.1328 49.5229 20.021 49.3756C19.6018 48.7763 18.8006 48.219 18.1018 48.2716C17.8224 48.2926 17.636 48.4609 17.3845 48.5766C16.9746 48.7553 16.5274 48.8184 16.1082 48.9236Z"/><path id="Vector_28" fill="#EDDDB2" d="M21.0679 11.6908C20.453 10.8286 20.2202 9.58788 20.481 8.49434C20.7325 7.43235 21.394 6.58065 22.13 5.92876C22.866 5.27685 23.6951 4.79314 24.4777 4.1938C25.6235 3.32107 26.639 2.217 27.4775 0.94471C27.5893 0.776472 27.7756 0.597721 27.906 0.744926C27.9805 1.155 28.0551 1.56513 28.1297 1.98573C28.4743 1.4705 28.8377 0.934207 29.35 0.692369C30.319 0.208687 31.5859 0.881625 32.4151 0.0930176C32.294 3.03715 31.204 5.87615 29.555 8.0632C28.3625 9.65096 26.8905 10.9023 25.2882 11.8276C23.7975 12.6687 22.3722 13.4994 21.0679 11.6908Z"/><path id="Vector_29" fill="#EDDDB2" d="M30.0471 12.9739C30.1682 12.7005 30.3452 12.3745 30.634 12.385C30.9973 12.3955 31.1371 12.9318 31.0346 13.2998C30.9321 13.6678 30.6992 14.0044 30.7365 14.3934C30.7737 14.7298 30.9973 15.0033 31.193 15.2661C31.9196 16.2755 32.2736 17.5688 32.1618 18.8201C32.7767 16.8328 33.5872 14.9191 34.5747 13.1211C35.0033 12.343 35.4691 11.5755 35.6927 10.7027C35.8883 9.94562 35.9069 9.14648 35.8511 8.3684C35.7858 7.4641 35.6275 6.53886 35.1337 5.79232C34.3791 4.64622 32.9444 4.1415 31.6494 4.2782C30.3451 4.41489 29.162 5.09835 28.1279 5.9185C27.3267 6.55987 24.6157 8.62078 25.8361 9.99823C26.4789 10.7238 27.7459 10.2611 28.5564 10.6607C29.4042 11.0602 30.0284 11.996 30.0471 12.9739Z"/></g><defs><linearGradient id="paint0_linear_1_124" x1="2.209" x2="94.59" y1="112.942" y2="112.942" gradientUnits="userSpaceOnUse"><stop stop-color="#4D4D4D"/><stop offset="1"/></linearGradient><linearGradient id="paint1_linear_1_124" x1="2.206" x2="94.588" y1="112.942" y2="112.942" gradientUnits="userSpaceOnUse"><stop/><stop offset="1"/></linearGradient><clipPath id="clip0_1_124"><rect width="95" height="116" fill="#fff"/></clipPath></defs></svg>