<svg width="30" height="32" viewBox="0 0 30 32" fill="none" xmlns="http://www.w3.org/2000/svg">
<g id="ep:arrow-right">
<path id="Vector" d="M20.0137 4.666C20.1772 4.8446 20.2688 5.08435 20.2688 5.334C20.2688 5.58366 20.1772 5.82341 20.0137 6.002L10.8768 16L20.0137 25.996C20.1772 26.1746 20.2688 26.4143 20.2688 26.664C20.2688 26.9136 20.1772 27.1534 20.0137 27.332C19.9342 27.4191 19.8392 27.4883 19.7342 27.5356C19.6292 27.5828 19.5164 27.6072 19.4024 27.6072C19.2885 27.6072 19.1757 27.5828 19.0707 27.5356C18.9657 27.4883 18.8707 27.4191 18.7912 27.332L9.07495 16.698C8.9043 16.5112 8.80879 16.2608 8.80879 16C8.80879 15.7392 8.9043 15.4887 9.07495 15.302L18.7912 4.668C18.8707 4.58092 18.9657 4.5117 19.0707 4.46444C19.1757 4.41717 19.2885 4.39282 19.4024 4.39282C19.5164 4.39282 19.6292 4.41717 19.7342 4.46444C19.8392 4.5117 19.9342 4.58092 20.0137 4.668V4.666Z" fill="black"/>
</g>
</svg>
